<mxfile host="65bd71144e">
    <diagram id="A3qWTJxBf30MFO97emnY" name="Page-1">
        <mxGraphModel dx="1320" dy="666" grid="1" gridSize="10" guides="1" tooltips="1" connect="1" arrows="1" fold="1" page="1" pageScale="1" pageWidth="850" pageHeight="1100" math="0" shadow="0">
            <root>
                <mxCell id="0"/>
                <mxCell id="1" parent="0"/>
                <mxCell id="52" value="" style="edgeStyle=none;rounded=0;html=1;endArrow=none;endFill=0;strokeColor=#999999;" parent="1" source="3" target="13" edge="1">
                    <mxGeometry relative="1" as="geometry"/>
                </mxCell>
                <mxCell id="3" value="&lt;font color=&quot;#0f0f0f&quot; size=&quot;1&quot;&gt;&lt;b style=&quot;font-size: 14px&quot;&gt;processes&lt;/b&gt;&lt;/font&gt;" style="whiteSpace=wrap;html=1;fillColor=#d5e8d4;strokeColor=#82b366;" parent="1" vertex="1">
                    <mxGeometry x="362" y="230" width="120" height="60" as="geometry"/>
                </mxCell>
                <mxCell id="47" value="" style="edgeStyle=none;html=1;endArrow=none;endFill=0;strokeColor=#999999;rounded=0;" parent="1" source="4" target="3" edge="1">
                    <mxGeometry relative="1" as="geometry"/>
                </mxCell>
                <mxCell id="4" value="&lt;font color=&quot;#0f0f0f&quot; size=&quot;1&quot;&gt;&lt;b style=&quot;font-size: 14px&quot;&gt;users&lt;/b&gt;&lt;/font&gt;" style="whiteSpace=wrap;html=1;fillColor=#f8cecc;strokeColor=#b85450;" parent="1" vertex="1">
                    <mxGeometry x="80" y="230" width="120" height="60" as="geometry"/>
                </mxCell>
                <mxCell id="48" value="" style="edgeStyle=none;rounded=0;html=1;endArrow=none;endFill=0;strokeColor=#999999;" parent="1" source="5" target="3" edge="1">
                    <mxGeometry relative="1" as="geometry"/>
                </mxCell>
                <mxCell id="53" value="" style="edgeStyle=none;rounded=0;html=1;endArrow=none;endFill=0;strokeColor=#999999;" parent="1" source="5" target="14" edge="1">
                    <mxGeometry relative="1" as="geometry"/>
                </mxCell>
                <mxCell id="58" style="edgeStyle=none;rounded=0;html=1;endArrow=none;endFill=0;strokeColor=#999999;entryX=0.5;entryY=1;entryDx=0;entryDy=0;exitX=0.5;exitY=0;exitDx=0;exitDy=0;" parent="1" source="5" target="4" edge="1">
                    <mxGeometry relative="1" as="geometry">
                        <mxPoint x="222" y="300" as="targetPoint"/>
                    </mxGeometry>
                </mxCell>
                <mxCell id="5" value="&lt;font color=&quot;#0f0f0f&quot; size=&quot;1&quot;&gt;&lt;b style=&quot;font-size: 14px&quot;&gt;accounts&lt;/b&gt;&lt;/font&gt;" style="whiteSpace=wrap;html=1;fillColor=#fad7ac;strokeColor=#b46504;" parent="1" vertex="1">
                    <mxGeometry x="362" y="360" width="120" height="60" as="geometry"/>
                </mxCell>
                <mxCell id="54" value="" style="edgeStyle=none;rounded=0;html=1;endArrow=none;endFill=0;strokeColor=#999999;" parent="1" source="9" target="3" edge="1">
                    <mxGeometry relative="1" as="geometry"/>
                </mxCell>
                <mxCell id="9" value="&lt;font color=&quot;#0f0f0f&quot; size=&quot;1&quot;&gt;&lt;b style=&quot;font-size: 14px&quot;&gt;customers&lt;/b&gt;&lt;/font&gt;" style="whiteSpace=wrap;html=1;fillColor=#fad7ac;strokeColor=#b46504;" parent="1" vertex="1">
                    <mxGeometry x="362" y="100" width="120" height="60" as="geometry"/>
                </mxCell>
                <mxCell id="13" value="&lt;font color=&quot;#0f0f0f&quot; size=&quot;1&quot;&gt;&lt;b style=&quot;font-size: 14px&quot;&gt;signeddocs&lt;br&gt;&lt;/b&gt;&lt;/font&gt;" style="whiteSpace=wrap;html=1;fillColor=#b0e3e6;strokeColor=#0e8088;" parent="1" vertex="1">
                    <mxGeometry x="640" y="230" width="120" height="60" as="geometry"/>
                </mxCell>
                <mxCell id="60" style="edgeStyle=none;rounded=0;html=1;entryX=0.5;entryY=1;entryDx=0;entryDy=0;endArrow=none;endFill=0;strokeColor=#999999;" parent="1" target="3" edge="1">
                    <mxGeometry relative="1" as="geometry">
                        <mxPoint x="700" y="360" as="sourcePoint"/>
                    </mxGeometry>
                </mxCell>
                <mxCell id="14" value="&lt;font color=&quot;#0f0f0f&quot; size=&quot;1&quot;&gt;&lt;b style=&quot;font-size: 14px&quot;&gt;standarddocs&lt;/b&gt;&lt;/font&gt;" style="whiteSpace=wrap;html=1;fillColor=#b0e3e6;strokeColor=#0e8088;" parent="1" vertex="1">
                    <mxGeometry x="640" y="360" width="120" height="60" as="geometry"/>
                </mxCell>
                <mxCell id="57" value="" style="edgeStyle=none;rounded=0;html=1;endArrow=none;endFill=0;strokeColor=#999999;" parent="1" source="55" target="4" edge="1">
                    <mxGeometry relative="1" as="geometry"/>
                </mxCell>
                <mxCell id="72" style="edgeStyle=none;rounded=0;html=1;entryX=0.5;entryY=1;entryDx=0;entryDy=0;endArrow=none;endFill=0;strokeColor=#999999;exitX=0.5;exitY=0;exitDx=0;exitDy=0;" parent="1" source="4" target="9" edge="1">
                    <mxGeometry relative="1" as="geometry"/>
                </mxCell>
                <mxCell id="55" value="&lt;font color=&quot;#0f0f0f&quot; size=&quot;1&quot;&gt;&lt;b style=&quot;font-size: 14px&quot;&gt;acesses&lt;/b&gt;&lt;/font&gt;" style="whiteSpace=wrap;html=1;fillColor=#f8cecc;strokeColor=#b85450;" parent="1" vertex="1">
                    <mxGeometry x="80" y="360" width="120" height="60" as="geometry"/>
                </mxCell>
                <mxCell id="63" style="edgeStyle=none;rounded=0;html=1;entryX=0.5;entryY=1;entryDx=0;entryDy=0;endArrow=none;endFill=0;strokeColor=#999999;dashed=1;" parent="1" source="61" target="55" edge="1">
                    <mxGeometry relative="1" as="geometry"/>
                </mxCell>
                <mxCell id="61" value="add&amp;nbsp; get" style="text;html=1;resizable=0;autosize=1;align=center;verticalAlign=middle;points=[];fillColor=none;strokeColor=none;rounded=0;dashed=1;sketch=1;" parent="1" vertex="1">
                    <mxGeometry x="110" y="480" width="60" height="20" as="geometry"/>
                </mxCell>
                <mxCell id="65" value="" style="edgeStyle=none;rounded=0;html=1;dashed=1;endArrow=none;endFill=0;strokeColor=#999999;" parent="1" source="64" target="9" edge="1">
                    <mxGeometry relative="1" as="geometry"/>
                </mxCell>
                <mxCell id="64" value="add set get" style="text;html=1;resizable=0;autosize=1;align=center;verticalAlign=middle;points=[];fillColor=none;strokeColor=none;rounded=0;dashed=1;sketch=1;" parent="1" vertex="1">
                    <mxGeometry x="387" y="30" width="70" height="20" as="geometry"/>
                </mxCell>
                <mxCell id="67" value="" style="edgeStyle=none;rounded=0;html=1;dashed=1;endArrow=none;endFill=0;strokeColor=#999999;" parent="1" source="66" target="5" edge="1">
                    <mxGeometry relative="1" as="geometry"/>
                </mxCell>
                <mxCell id="66" value="add&amp;nbsp; set get" style="text;html=1;resizable=0;autosize=1;align=center;verticalAlign=middle;points=[];fillColor=none;strokeColor=none;rounded=0;dashed=1;sketch=1;" parent="1" vertex="1">
                    <mxGeometry x="382" y="480" width="80" height="20" as="geometry"/>
                </mxCell>
                <mxCell id="69" value="" style="edgeStyle=none;rounded=0;html=1;dashed=1;endArrow=none;endFill=0;strokeColor=#999999;" parent="1" target="14" edge="1">
                    <mxGeometry relative="1" as="geometry">
                        <mxPoint x="699.9999999999998" y="480" as="sourcePoint"/>
                    </mxGeometry>
                </mxCell>
                <mxCell id="68" value="add&amp;nbsp; set&amp;nbsp; get" style="text;html=1;resizable=0;autosize=1;align=center;verticalAlign=middle;points=[];fillColor=none;strokeColor=none;rounded=0;dashed=1;sketch=1;" parent="1" vertex="1">
                    <mxGeometry x="660" y="480" width="80" height="20" as="geometry"/>
                </mxCell>
                <mxCell id="71" value="" style="edgeStyle=none;rounded=0;html=1;dashed=1;endArrow=none;endFill=0;strokeColor=#999999;" parent="1" source="70" target="13" edge="1">
                    <mxGeometry relative="1" as="geometry"/>
                </mxCell>
                <mxCell id="70" value="push&amp;nbsp; pull" style="text;html=1;resizable=0;autosize=1;align=center;verticalAlign=middle;points=[];fillColor=none;strokeColor=none;rounded=0;dashed=1;sketch=1;" parent="1" vertex="1">
                    <mxGeometry x="665" y="150" width="70" height="20" as="geometry"/>
                </mxCell>
                <mxCell id="75" value="" style="edgeStyle=none;rounded=0;html=1;endArrow=none;endFill=0;strokeColor=#999999;dashed=1;" parent="1" target="4" edge="1">
                    <mxGeometry relative="1" as="geometry">
                        <mxPoint x="140" y="170" as="sourcePoint"/>
                    </mxGeometry>
                </mxCell>
                <mxCell id="73" value="signIn&amp;nbsp; signUp&amp;nbsp; set" style="text;html=1;resizable=0;autosize=1;align=center;verticalAlign=middle;points=[];fillColor=none;strokeColor=none;rounded=0;dashed=1;sketch=1;" parent="1" vertex="1">
                    <mxGeometry x="85" y="150" width="110" height="20" as="geometry"/>
                </mxCell>
                <mxCell id="77" style="edgeStyle=none;rounded=0;html=1;entryX=0.5;entryY=0;entryDx=0;entryDy=0;dashed=1;endArrow=none;endFill=0;strokeColor=#999999;exitX=-0.018;exitY=0.46;exitDx=0;exitDy=0;exitPerimeter=0;" parent="1" source="76" target="3" edge="1">
                    <mxGeometry relative="1" as="geometry"/>
                </mxCell>
                <mxCell id="76" value="add set get" style="text;html=1;resizable=0;autosize=1;align=left;verticalAlign=middle;points=[];fillColor=none;strokeColor=none;rounded=0;dashed=1;sketch=1;" parent="1" vertex="1">
                    <mxGeometry x="540" y="175" width="70" height="20" as="geometry"/>
                </mxCell>
                <mxCell id="79" value="&lt;font color=&quot;#0f0f0f&quot; size=&quot;1&quot;&gt;&lt;b style=&quot;font-size: 14px&quot;&gt;services&lt;/b&gt;&lt;/font&gt;" style="whiteSpace=wrap;html=1;fillColor=#d5e8d4;strokeColor=#82b366;" parent="1" vertex="1">
                    <mxGeometry x="80" y="560" width="80" height="110" as="geometry"/>
                </mxCell>
                <mxCell id="81" value="" style="edgeStyle=none;rounded=0;html=1;dashed=1;endArrow=none;endFill=0;strokeColor=#999999;" parent="1" source="80" target="79" edge="1">
                    <mxGeometry relative="1" as="geometry"/>
                </mxCell>
                <mxCell id="80" value="sendEmail&lt;br&gt;validStatus" style="text;html=1;resizable=0;autosize=1;align=left;verticalAlign=middle;points=[];fillColor=none;strokeColor=none;rounded=0;dashed=1;sketch=1;" parent="1" vertex="1">
                    <mxGeometry x="212" y="600" width="70" height="30" as="geometry"/>
                </mxCell>
                <mxCell id="82" value="&lt;font color=&quot;#0f0f0f&quot; size=&quot;1&quot;&gt;&lt;b style=&quot;font-size: 14px&quot;&gt;payments&lt;/b&gt;&lt;/font&gt;" style="whiteSpace=wrap;html=1;fillColor=#fad7ac;strokeColor=#b46504;" parent="1" vertex="1">
                    <mxGeometry x="640" y="550" width="120" height="60" as="geometry"/>
                </mxCell>
                <mxCell id="83" value="" style="edgeStyle=none;rounded=0;html=1;endArrow=none;endFill=0;strokeColor=#999999;entryX=0;entryY=0.5;entryDx=0;entryDy=0;exitX=1;exitY=0.5;exitDx=0;exitDy=0;" parent="1" source="5" target="82" edge="1">
                    <mxGeometry relative="1" as="geometry">
                        <mxPoint x="492" y="400" as="sourcePoint"/>
                        <mxPoint x="650" y="400" as="targetPoint"/>
                    </mxGeometry>
                </mxCell>
                <mxCell id="84" value="" style="edgeStyle=none;rounded=0;html=1;dashed=1;endArrow=none;endFill=0;strokeColor=#999999;exitX=0.495;exitY=-0.139;exitDx=0;exitDy=0;exitPerimeter=0;entryX=0.5;entryY=1;entryDx=0;entryDy=0;" parent="1" source="85" target="82" edge="1">
                    <mxGeometry relative="1" as="geometry">
                        <mxPoint x="699.9999999999998" y="660" as="sourcePoint"/>
                        <mxPoint x="700" y="630" as="targetPoint"/>
                    </mxGeometry>
                </mxCell>
                <mxCell id="85" value="doBilling&amp;nbsp; validPayment" style="text;html=1;resizable=0;autosize=1;align=center;verticalAlign=middle;points=[];fillColor=none;strokeColor=none;rounded=0;dashed=1;sketch=1;" parent="1" vertex="1">
                    <mxGeometry x="630" y="660" width="140" height="20" as="geometry"/>
                </mxCell>
            </root>
        </mxGraphModel>
    </diagram>
</mxfile>